<?xml version="1.0" standalone="no"?>
<!DOCTYPE svg PUBLIC "-//W3C//DTD SVG 20010904//EN"
 "http://www.w3.org/TR/2001/REC-SVG-20010904/DTD/svg10.dtd">
<svg version="1.0" xmlns="http://www.w3.org/2000/svg"
 width="500.000000pt" height="500.000000pt" viewBox="0 0 500.000000 500.000000"
 preserveAspectRatio="xMidYMid meet">

  <defs>
    <linearGradient id="grad1" x1="0%" y1="0%" x2="100%" y2="0%">
      <stop offset="0%" style="stop-color:#ff512f; stop-opacity:1" />
      <stop offset="50%" style="stop-color:#dd2476; stop-opacity:1" />
      <stop offset="100%" style="stop-color:#ff512f; stop-opacity:1" />
    </linearGradient>
  </defs>

  <g transform="translate(0.000000,500.000000) scale(0.100000,-0.100000)"
     fill="url(#grad1)" stroke="none">
    <path d="M671 3053 c0 -5 28 -55 63 -113 l61 -105 298 1 c172 0 297 -4 297 -9
    0 -5 -31 -62 -69 -126 -37 -64 -79 -135 -91 -158 -13 -24 -27 -43 -31 -43 -4
    0 -21 23 -38 50 l-31 50 -100 0 c-66 0 -100 -4 -100 -11 0 -6 13 -34 29 -62
    148 -264 138 -242 129 -305 -31 -223 -35 -272 -20 -284 28 -23 62 14 146 157
    45 77 135 230 201 340 65 110 127 216 138 235 10 19 43 76 72 125 28 50 73
    126 99 170 46 79 46 80 24 87 -32 9 -1078 10 -1077 1z"/>
    <path d="M2754 2835 c-14 -21 -15 -31 -6 -51 14 -30 33 -38 67 -30 21 5 25 12
    25 44 0 21 -5 43 -12 50 -20 20 -56 14 -74 -13z"/>
    <path d="M3906 2844 c-34 -33 -12 -94 34 -94 47 0 68 61 32 93 -23 21 -46 22
    -66 1z"/>
    <path d="M4080 2570 l0 -280 46 0 46 0 -2 43 c-4 96 0 127 15 127 15 0 34 -17
    65 -56 90 -113 90 -114 136 -114 24 0 44 2 44 5 0 3 -34 51 -76 106 l-76 100
    18 27 c9 15 32 45 49 67 18 22 40 52 50 68 l17 27 -45 0 c-46 0 -47 -1 -104
    -75 -91 -118 -103 -105 -99 108 l3 127 -43 0 -44 0 0 -280z"/>
    <path d="M1910 2800 l0 -39 88 -3 87 -3 -3 -232 -3 -233 50 0 51 0 0 235 0
    235 85 0 85 0 0 40 0 40 -220 0 -220 0 0 -40z"/>
    <path d="M3335 2823 c5 -10 20 -52 35 -93 30 -82 33 -91 60 -165 11 -27 36
    -101 57 -162 l38 -113 55 0 55 0 22 58 c12 31 38 104 58 162 20 58 54 154 76
    213 21 60 39 110 39 113 0 2 -21 4 -48 4 l-47 0 -74 -222 c-53 -158 -77 -218
    -83 -208 -5 8 -40 107 -77 220 l-68 205 -53 3 c-48 3 -52 1 -45 -15z"/>
    <path d="M2404 2681 c-116 -53 -152 -231 -67 -332 56 -66 174 -89 259 -50 56
    25 61 38 31 68 -24 24 -25 25 -51 8 -20 -13 -40 -16 -83 -13 -48 4 -61 10 -85
    37 -52 58 -46 61 123 61 l152 0 -6 55 c-8 77 -47 141 -100 166 -53 24 -121 24
    -173 0z m137 -71 c17 -10 54 -68 47 -75 -4 -4 -71 -7 -146 -6 l-64 1 19 32
    c30 52 95 73 144 48z"/>
    <path d="M3049 2690 c-83 -25 -132 -98 -133 -200 0 -58 4 -75 29 -116 39 -61
    98 -94 169 -93 126 2 196 68 204 194 4 65 2 78 -23 124 -22 40 -39 56 -78 76
    -52 26 -115 31 -168 15z m131 -87 c37 -25 48 -44 55 -88 13 -83 -41 -155 -117
    -155 -89 1 -141 91 -107 189 22 62 115 92 169 54z"/>
    <path d="M2750 2456 c0 -254 -3 -266 -55 -266 -18 0 -24 -7 -28 -32 -2 -19 0
    -36 7 -41 17 -12 98 1 119 20 42 39 47 74 47 319 l0 234 -45 0 -45 0 0 -234z"/>
    <path d="M3898 2663 c-3 -71 -4 -349 0 -360 2 -8 21 -13 43 -13 l39 0 0 178
    c0 97 3 187 6 200 6 20 3 22 -40 22 -43 0 -46 -2 -48 -27z"/>
  </g>
</svg>
